<svg xmlns="http://www.w3.org/2000/svg" viewBox="0 0 24 24" role="img" aria-label="Webhooks">
  <title>Webhooks</title>
  <path fill="#A855F7" d="M14.7 4.2a3.8 3.8 0 0 0-3.6 4.9L8.3 11.3a3.8 3.8 0 1 0 .9 1.7l3.4-2.5a3.8 3.8 0 0 0 4.5-1.1 3.8 3.8 0 0 0-2.4-5.2zm-9 8.3a1.9 1.9 0 1 1 0 3.8 1.9 1.9 0 0 1 0-3.8zm10.9-6.5a1.9 1.9 0 1 1 0 3.8 1.9 1.9 0 0 1 0-3.8z"/>
  <path fill="#D946EF" d="M15.2 13.1a3.8 3.8 0 0 0-3.5 2.4H8.6a3.8 3.8 0 1 0 0 1.9h3.2a3.8 3.8 0 1 0 3.4-4.3zm-9.5 4.3a1.9 1.9 0 1 1 3.8 0 1.9 1.9 0 0 1-3.8 0zm11.4-1.9a1.9 1.9 0 1 1 0 3.8 1.9 1.9 0 0 1 0-3.8z"/>
</svg>
